PathFileType	4	(X/Y/Z)	1H_nor_med_right.trc
DataRate	CameraRate	NumFrames	NumMarkers	Units	OrigDataRate	OrigDataStartFrame	OrigNumFrames
250.00	250.00	17	18	mm	250.00	9633	11009
Frame#	Time	c7	r_should	l_should	clavicle	r_upa	r_elb_l	r_elb_m	r_low	r_wri_l	r_wri_m	r_met	l_upa	l_elb_l	l_elb_m	l_low	l_wri_l	l_wri_m	l_met
	X1	Y1	Z1	X2	Y2	Z2	X3	Y3	Z3	X4	Y4	Z4	X5	Y5	Z5	X6	Y6	Z6	X7	Y7	Z7	X8	Y8	Z8	X9	Y9	Z9	X10	Y10	Z10	X11	Y11	Z11	X12	Y12	Z12	X13	Y13	Z13	X14	Y14	Z14	X15	Y15	Z15	X16	Y16	Z16	X17	Y17	Z17	X18	Y18	Z18
9633	38.52800	1229.09961	1422.10242	131.73387	1313.52661	1376.65149	266.04715	1210.65002	1357.88123	-44.00355	1335.47375	1284.62903	91.71699	1364.96619	1175.57019	331.57898	1382.62024	1090.90369	352.54990	1295.51453	1053.15381	345.87723	1413.21094	966.89294	319.53967	1435.71606	855.20081	277.15408	1398.68262	836.48712	342.57785	1482.90625	794.99957	294.83160	1186.71924	1144.62817	-97.38158	1189.63879	1036.49219	-114.26788	1166.66223	1025.93213	-15.26228	1193.90320	913.91595	-109.56010	1217.42834	794.96606	-86.98777	1140.04956	792.53076	-82.07961	1195.33557	719.76501	-129.56741
9634	38.53200	1229.18054	1422.10461	131.62318	1313.69873	1376.60742	265.94946	1210.68188	1357.88013	-44.09489	1335.51672	1284.61511	91.59848	1364.71887	1174.99158	331.43259	1382.83191	1090.65393	352.24258	1295.55725	1053.01392	345.70691	1413.14368	966.30988	319.83066	1435.39783	854.23102	278.16901	1398.30017	836.00012	343.71747	1482.45544	793.99249	296.18423	1186.67517	1144.63757	-97.48820	1188.77869	1037.14148	-114.88926	1166.64172	1025.93469	-15.35508	1193.76123	913.95471	-109.62370	1217.30676	794.96344	-87.16837	1139.92004	792.54327	-82.20360	1195.16089	719.77295	-129.74135
9635	38.53600	1229.25964	1422.10681	131.51794	1313.86853	1376.56677	265.85431	1210.71228	1357.88306	-44.18665	1335.55896	1284.59253	91.48426	1364.78906	1174.75500	331.18973	1383.03918	1090.40308	351.94568	1295.59790	1052.88147	345.53015	1413.06750	965.75183	320.12296	1435.08789	853.27448	279.20682	1397.90588	835.54089	344.83615	1481.99683	793.00165	297.54987	1186.63928	1144.64648	-97.59553	1188.51514	1037.31689	-115.13554	1166.62170	1025.93384	-15.44959	1193.64929	913.97400	-109.75220	1217.19006	794.95679	-87.33271	1139.79382	792.55328	-82.32728	1194.98608	719.78406	-129.91731
9636	38.54000	1229.33508	1422.11060	131.41437	1314.02942	1376.53528	265.76114	1210.75195	1357.88025	-44.27890	1335.60437	1284.56726	91.37817	1364.93323	1174.59778	330.93079	1383.22351	1090.15955	351.64874	1295.63831	1052.75745	345.35510	1412.98962	965.18610	320.41400	1434.75586	852.33435	280.22342	1397.50928	835.09363	345.94360	1481.52710	792.01123	298.91336	1186.61072	1144.65552	-97.70033	1188.39722	1037.37610	-115.29307	1166.60303	1025.93860	-15.54685	1193.54297	913.98645	-109.89520	1217.07300	794.95038	-87.49155	1139.66956	792.57056	-82.45566	1194.82092	719.79413	-130.08386
9637	38.54400	1229.40637	1422.11438	131.31303	1314.19080	1376.50708	265.67950	1210.60986	1358.00928	-44.33590	1335.64502	1284.55042	91.27787	1365.09509	1174.46826	330.67026	1383.38391	1089.92542	351.34927	1295.66333	1052.64612	345.19070	1412.90698	964.61987	320.70920	1434.39795	851.39227	281.22552	1397.12683	834.66095	347.08191	1481.05933	791.03918	300.28360	1186.58630	1144.66760	-97.80160	1188.32605	1037.40991	-115.42365	1166.57849	1025.93591	-15.65093	1193.43774	913.99640	-110.05021	1216.95569	794.94476	-87.64975	1139.54248	792.60132	-82.58281	1194.66125	719.80701	-130.24426
9638	38.54800	1229.47778	1422.12183	131.21619	1314.34253	1376.48413	265.60138	1210.24683	1358.29578	-44.34711	1335.68823	1284.53699	91.18221	1365.26123	1174.34949	330.39542	1383.54321	1089.69714	351.05515	1295.67725	1052.53857	345.02710	1412.82434	964.08734	321.00381	1434.06604	850.47412	282.23773	1396.72424	834.24536	348.21729	1480.59460	790.09155	301.64188	1186.56677	1144.68079	-97.90372	1188.27539	1037.43665	-115.54382	1166.54907	1025.93738	-15.75315	1193.34045	914.00336	-110.20303	1216.84717	794.93805	-87.80640	1139.41675	792.62665	-82.71024	1194.50317	719.82574	-130.40108
9639	38.55200	1229.54736	1422.13379	131.12083	1314.48755	1376.45947	265.52838	1210.19250	1358.36462	-44.41031	1335.73145	1284.52539	91.09717	1365.42261	1174.24548	330.11081	1383.70300	1089.47571	350.75705	1295.69446	1052.42871	344.85583	1412.74390	963.58038	321.29749	1433.73462	849.56995	283.25278	1396.32495	833.81714	349.30814	1480.12036	789.15356	303.00519	1186.55444	1144.68921	-97.99866	1188.67090	1037.10815	-115.37384	1166.51257	1025.94800	-15.84773	1193.25244	914.01898	-110.34811	1216.73755	794.92871	-87.95596	1139.29529	792.64490	-82.81751	1194.34619	719.84631	-130.57057
9640	38.55600	1229.61694	1422.14465	131.02757	1314.62231	1376.42944	265.45203	1210.20837	1358.38208	-44.48818	1335.77466	1284.52112	91.02055	1365.57532	1174.13501	329.83908	1383.86365	1089.24060	350.45163	1295.71814	1052.31067	344.67905	1412.65613	963.07306	321.58875	1433.38745	848.67932	284.24976	1395.91846	833.39990	350.42883	1479.62720	788.22571	304.38824	1186.54468	1144.69568	-98.08754	1189.17651	1036.68005	-115.13535	1166.47925	1025.95703	-15.94507	1193.16113	914.03339	-110.48785	1216.61487	794.93140	-88.11498	1139.17639	792.66089	-82.93848	1194.19592	719.86267	-130.74663
9641	38.56000	1229.68726	1422.15442	130.93307	1314.75073	1376.39575	265.38171	1210.42627	1358.24731	-44.60581	1335.81995	1284.51660	90.94093	1365.72864	1174.02100	329.56287	1384.00208	1088.99548	350.15744	1295.73730	1052.18787	344.49503	1412.56458	962.55341	321.87534	1433.03821	847.80963	285.26050	1395.51233	832.98102	351.51328	1479.13318	787.31598	305.75299	1186.53882	1144.70105	-98.17616	1188.39417	1037.27869	-115.72337	1166.45435	1025.95190	-16.03632	1193.07410	914.03577	-110.61633	1216.49243	794.92316	-88.28667	1139.06152	792.68036	-83.07117	1194.04578	719.87476	-130.91574
9642	38.56400	1229.75757	1422.17053	130.83588	1314.87134	1376.36194	265.32208	1210.87524	1357.94531	-44.76364	1335.87036	1284.51392	90.86193	1365.87598	1173.91223	329.28073	1384.12805	1088.75378	349.86560	1295.73865	1052.07239	344.29568	1412.07104	962.41180	321.83960	1432.71997	846.95801	286.28027	1395.10010	832.60461	352.60934	1478.64868	786.41418	307.13272	1186.53418	1144.70642	-98.26476	1188.17224	1037.43982	-115.95477	1166.43921	1025.93762	-16.13380	1193.00098	914.02563	-110.72900	1216.37720	794.91040	-88.44260	1138.95190	792.69904	-83.21895	1193.89282	719.88940	-131.08969
9643	38.56800	1229.82703	1422.18652	130.74454	1314.98535	1376.32544	265.25949	1211.01721	1357.86658	-44.87165	1335.91968	1284.52197	90.78819	1366.01538	1173.80090	329.01324	1384.25000	1088.52014	349.57455	1295.73718	1051.94739	344.08514	1411.09607	962.77081	321.40292	1432.39709	846.11237	287.29398	1394.69165	832.24994	353.70609	1478.15186	785.52820	308.49890	1186.52869	1144.71204	-98.35361	1188.09314	1037.48804	-116.10201	1166.42212	1025.92554	-16.24090	1192.93909	914.01538	-110.83782	1216.26514	794.90277	-88.61484	1138.84045	792.71722	-83.36190	1193.73804	719.89679	-131.26321
9644	38.57200	1229.89392	1422.20032	130.64774	1315.09241	1376.28101	265.19241	1211.08350	1357.84302	-44.96635	1335.96387	1284.53149	90.71406	1366.15137	1173.70508	328.73886	1384.36621	1088.29773	349.28369	1295.73901	1051.81067	343.86371	1410.76855	962.49896	321.51208	1432.06470	845.27771	288.28360	1394.27563	831.90430	354.78729	1477.64368	784.65338	309.85114	1186.53076	1144.71777	-98.44777	1188.05054	1037.49146	-116.22723	1166.40161	1025.91492	-16.35618	1192.87280	914.02039	-110.95907	1216.15759	794.89490	-88.78240	1138.73279	792.74023	-83.50951	1193.58203	719.90100	-131.43814
9645	38.57600	1229.95715	1422.20886	130.55096	1315.19312	1376.23669	265.13141	1211.13721	1357.82690	-45.05257	1336.00562	1284.53394	90.64029	1366.27795	1173.61072	328.46469	1384.47314	1088.07996	349.00500	1295.73181	1051.67273	343.64417	1410.60547	962.06152	321.76395	1431.71838	844.45703	289.30365	1393.87317	831.56122	355.85437	1477.14062	783.79419	311.21170	1186.53442	1144.71667	-98.54417	1188.02148	1037.49194	-116.34329	1166.38684	1025.90442	-16.47463	1192.80835	914.01312	-111.06606	1216.05029	794.87842	-88.94015	1138.63428	792.76624	-83.65783	1193.43164	719.90302	-131.61063
9646	38.58000	1230.02112	1422.21191	130.45885	1315.28931	1376.19055	265.07297	1211.18286	1357.81860	-45.12934	1336.04834	1284.53210	90.57244	1366.51038	1173.63928	328.14395	1384.56506	1087.85205	348.72711	1295.70715	1051.54553	343.41858	1410.47217	961.58148	322.04401	1431.38367	843.64972	290.31918	1393.43433	831.22266	356.93588	1476.62622	782.93860	312.55978	1186.54602	1144.71667	-98.63635	1188.44482	1037.14172	-116.17373	1166.37646	1025.89758	-16.58664	1192.74731	914.00562	-111.18469	1215.95349	794.85565	-89.08980	1138.53650	792.78131	-83.80284	1193.28845	719.90625	-131.78091
9647	38.58400	1230.08154	1422.21960	130.36885	1315.38501	1376.14636	265.01645	1211.22546	1357.81445	-45.21218	1336.08911	1284.52844	90.51080	1366.86853	1173.82544	327.76599	1384.64954	1087.60669	348.44290	1295.67859	1051.41907	343.18930	1410.33484	961.08636	322.34930	1431.02271	842.82196	291.32162	1393.01257	830.90637	357.99948	1476.10742	782.08832	313.90579	1186.56055	1144.71643	-98.72773	1188.98242	1036.70703	-115.94402	1166.36829	1025.90063	-16.69561	1192.69153	913.99860	-111.30560	1215.85791	794.82751	-89.24131	1138.44043	792.79370	-83.95563	1193.15295	719.90576	-131.94214
9648	38.58800	1230.13989	1422.22522	130.28145	1315.48669	1376.09644	264.96017	1211.08643	1357.94275	-45.25736	1336.12708	1284.51855	90.44245	1367.00891	1173.74658	327.46692	1384.73010	1087.35156	348.15692	1295.64673	1051.29309	342.96542	1410.19604	960.58728	322.66403	1430.64917	841.99713	292.28366	1392.58337	830.58807	359.04413	1475.58997	781.24213	315.24594	1186.57581	1144.71570	-98.82308	1188.66589	1036.94751	-116.26391	1166.37256	1025.90442	-16.80820	1192.65491	913.98932	-111.38970	1215.76428	794.80133	-89.40073	1138.34790	792.81323	-84.12000	1193.02417	719.90405	-132.10222
9649	38.59200	1230.19824	1422.22925	130.20248	1315.58521	1376.03845	264.91031	1210.71887	1358.23389	-45.25954	1336.16272	1284.50757	90.36465	1367.09216	1173.59460	327.19183	1384.81018	1087.09644	347.88040	1295.60388	1051.16125	342.73624	1410.06067	960.08801	322.97815	1430.28613	841.20557	293.28531	1392.14417	830.27136	360.09030	1475.06775	780.41925	316.57605	1186.59839	1144.71533	-98.91634	1189.03210	1036.65979	-116.13223	1166.38635	1025.91528	-16.91949	nan	nan	nan	1215.67749	794.77124	-89.55254	1138.25793	792.82404	-84.27286	1192.89502	719.90240	-132.27748
